<svg width="16" height="16" viewBox="0 0 16 16" fill="none" xmlns="http://www.w3.org/2000/svg">
<path fill-rule="evenodd" clip-rule="evenodd" d="M4.93262 1.59932C4.71133 1.82062 4.71133 2.17941 4.93262 2.40071L10.1784 7.64646C10.317 7.78508 10.3965 7.86526 10.4503 7.92854C10.4722 7.95442 10.4832 7.96993 10.4878 7.97712C10.4914 7.99218 10.4914 8.00786 10.4878 8.02292C10.4832 8.03011 10.4722 8.04561 10.4503 8.07149C10.3965 8.13478 10.317 8.21495 10.1784 8.35357L4.93262 13.5993C4.71133 13.8206 4.71133 14.1794 4.93262 14.4007C5.15392 14.622 5.51271 14.622 5.73401 14.4007L10.9933 9.14146C11.1136 9.0211 11.2269 8.90789 11.3143 8.80496C11.4092 8.69312 11.5064 8.55673 11.5635 8.38114C11.644 8.13343 11.644 7.8666 11.5635 7.6189C11.5064 7.44331 11.4092 7.30691 11.3143 7.19508C11.2269 7.09214 11.1136 6.97892 10.9933 6.85856L5.73401 1.59932C5.51271 1.37803 5.15392 1.37803 4.93262 1.59932Z" fill="var(------overlay_dark, black)" fill-opacity="0.5"/>
</svg>
