<svg width="24" height="24" viewBox="0 0 24 24" fill="none" xmlns="http://www.w3.org/2000/svg">
<circle cx="12" cy="12" r="12" fill="#0099FF"/>
<path d="M17.26 7.92628C17.4871 7.74107 17.8223 7.7543 18.0339 7.96595C18.2456 8.17762 18.2588 8.51281 18.0736 8.73988L18.0339 8.78382L11.2407 15.5764C11.1237 15.6934 11.0118 15.8061 10.9099 15.8926C10.8296 15.9607 10.7348 16.0319 10.6194 16.0867L10.4967 16.1355C10.2854 16.2041 10.0597 16.2126 9.84486 16.1611L9.75331 16.1355C9.58046 16.0793 9.44716 15.9835 9.3401 15.8926C9.28915 15.8493 9.23555 15.7997 9.18019 15.7461L9.00929 15.5764L5.96607 12.5338L5.9264 12.4899C5.7412 12.2628 5.75441 11.9276 5.96607 11.716C6.17773 11.5043 6.51293 11.4911 6.74 11.6763L6.78395 11.716L9.82655 14.7592L9.98463 14.916C10.0265 14.9567 10.0596 14.9868 10.0884 15.0112C10.1025 15.0232 10.1132 15.0306 10.1201 15.0357C10.1235 15.036 10.1265 15.036 10.1299 15.0357C10.1368 15.0306 10.1476 15.0232 10.1616 15.0112C10.2192 14.9624 10.293 14.8897 10.4235 14.7592L17.2161 7.96595L17.26 7.92628Z" fill="white"/>
</svg>
