<svg width="24" height="24" viewBox="0 0 24 24" fill="none" xmlns="http://www.w3.org/2000/svg">
<path d="M20.416 4.28227C20.7793 3.98593 21.3156 4.00709 21.6543 4.34574C21.993 4.6844 22.0141 5.22071 21.7178 5.58403L21.6543 5.65434L10.7852 16.5225C10.598 16.7097 10.4189 16.89 10.2559 17.0284C10.1274 17.1374 9.97566 17.2512 9.79102 17.3389L9.59473 17.417C9.25663 17.5268 8.89557 17.5404 8.55176 17.458L8.40527 17.417C8.12872 17.3272 7.91544 17.1738 7.74414 17.0284C7.66263 16.9592 7.57686 16.8797 7.48828 16.794L7.21484 16.5225L2.3457 11.6543L2.28223 11.584C1.9859 11.2207 2.00705 10.6844 2.3457 10.3457C2.68436 10.0071 3.22067 9.98594 3.58399 10.2823L3.6543 10.3457L8.52246 15.2149L8.77539 15.4659C8.84244 15.5309 8.89538 15.5791 8.94141 15.6182C8.96391 15.6373 8.98109 15.6491 8.99219 15.6573C8.99761 15.6579 9.00239 15.6579 9.00781 15.6573C9.01891 15.6491 9.03608 15.6373 9.05859 15.6182C9.15064 15.5401 9.26876 15.4237 9.47754 15.2149L20.3457 4.34574L20.416 4.28227Z" fill="#0099FF"/>
</svg>
