<svg width="131" height="126" viewBox="0 0 131 126" fill="none" xmlns="http://www.w3.org/2000/svg">
<path d="M130.118 3.19995C130.118 4.96726 128.686 6.39995 126.918 6.39995C125.151 6.39995 123.718 4.96726 123.718 3.19995C123.718 1.43264 125.151 -4.88758e-05 126.918 -4.88758e-05C128.686 -4.88758e-05 130.118 1.43264 130.118 3.19995ZM4.84264 125.527C4.60833 125.762 4.22843 125.762 3.99412 125.527L0.175743 121.709C-0.0585785 121.475 -0.0585785 121.095 0.175743 120.86C0.410057 120.626 0.789955 120.626 1.02427 120.86L4.41838 124.254L7.81249 120.86C8.04681 120.626 8.4267 120.626 8.66102 120.86C8.89534 121.095 8.89534 121.475 8.66102 121.709L4.84264 125.527ZM126.918 3.19995L127.518 3.19995V55.7H126.918H126.318V3.19995L126.918 3.19995ZM110.918 71.7V72.2999H20.4184V71.7V71.1H110.918V71.7ZM4.41838 87.7H5.01838V125.103H4.41838H3.81838V87.7H4.41838ZM20.4184 71.7V72.2999C11.9132 72.2999 5.01838 79.1948 5.01838 87.7H4.41838H3.81838C3.81838 78.532 11.2505 71.1 20.4184 71.1V71.7ZM126.918 55.7H127.518C127.518 64.8679 120.086 72.2999 110.918 72.2999V71.7V71.1C119.424 71.1 126.318 64.2051 126.318 55.7H126.918Z" fill="#9747FF"/>
</svg>
