<svg width="131" height="126" viewBox="0 0 131 126" fill="none" xmlns="http://www.w3.org/2000/svg">
<path d="M0.881836 3.19995C0.881836 4.96726 2.31453 6.39995 4.08184 6.39995C5.84914 6.39995 7.28184 4.96726 7.28184 3.19995C7.28184 1.43264 5.84914 -4.88758e-05 4.08184 -4.88758e-05C2.31453 -4.88758e-05 0.881836 1.43264 0.881836 3.19995ZM126.157 125.527C126.392 125.762 126.772 125.762 127.006 125.527L130.824 121.709C131.059 121.475 131.059 121.095 130.824 120.86C130.59 120.626 130.21 120.626 129.976 120.86L126.582 124.254L123.187 120.86C122.953 120.626 122.573 120.626 122.339 120.86C122.105 121.095 122.105 121.475 122.339 121.709L126.157 125.527ZM4.08184 3.19995L3.48184 3.19995V55.7H4.08184H4.68184V3.19995L4.08184 3.19995ZM20.0818 71.7V72.2999H110.582V71.7V71.1H20.0818V71.7ZM126.582 87.7H125.982V125.103H126.582H127.182V87.7H126.582ZM110.582 71.7V72.2999C119.087 72.2999 125.982 79.1948 125.982 87.7H126.582H127.182C127.182 78.532 119.749 71.1 110.582 71.1V71.7ZM4.08184 55.7H3.48184C3.48184 64.8679 10.9139 72.2999 20.0818 72.2999V71.7V71.1C11.5766 71.1 4.68184 64.2051 4.68184 55.7H4.08184Z" fill="#9747FF"/>
</svg>
