<svg width="16" height="16" viewBox="0 0 16 16" fill="none" xmlns="http://www.w3.org/2000/svg">
<path fill-rule="evenodd" clip-rule="evenodd" d="M4.93281 1.59908C4.71151 1.82038 4.71151 2.17917 4.93281 2.40047L10.1786 7.64622C10.3172 7.78484 10.3967 7.86501 10.4505 7.9283C10.4724 7.95418 10.4833 7.96968 10.488 7.97687C10.4916 7.99193 10.4916 8.00761 10.488 8.02267C10.4833 8.02986 10.4724 8.04537 10.4505 8.07125C10.3967 8.13453 10.3172 8.21471 10.1786 8.35333L4.93281 13.5991C4.71151 13.8204 4.71151 14.1792 4.93281 14.4005C5.1541 14.6218 5.5129 14.6218 5.73419 14.4005L10.9934 9.14122C11.1138 9.02086 11.2271 8.90765 11.3144 8.80471C11.4094 8.69288 11.5066 8.55648 11.5637 8.38089C11.6441 8.13319 11.6441 7.86636 11.5637 7.61865C11.5066 7.44306 11.4094 7.30667 11.3144 7.19483C11.2271 7.09189 11.1138 6.97868 10.9934 6.85832L5.73419 1.59908C5.5129 1.37778 5.1541 1.37778 4.93281 1.59908Z" fill="var(------icon_secondary, #3C3C43)" fill-opacity="0.75"/>
</svg>
