<svg width="16" height="16" viewBox="0 0 16 16" fill="none" xmlns="http://www.w3.org/2000/svg">
<path fill-rule="evenodd" clip-rule="evenodd" d="M7.19395 4.27945C6.15169 3.10691 4.34915 3.02053 3.19954 4.08802C2.17606 5.03839 2.01036 6.59805 2.8113 7.74225L2.87862 7.83843C3.24936 8.36805 3.66567 8.86427 4.12281 9.3214L7.9293 13.1279C7.96836 13.1669 8.03167 13.1669 8.07073 13.1279L11.8772 9.3214C12.3344 8.86427 12.7507 8.36805 13.1214 7.83843L13.1887 7.74225C13.9897 6.59805 13.824 5.0384 12.8005 4.08802C11.6509 3.02053 9.84834 3.10691 8.80608 4.27945L8.00001 5.18627L7.19395 4.27945ZM8.00002 3.48108C6.52963 1.87683 4.02873 1.77146 2.42836 3.25752C0.990242 4.59292 0.757411 6.78442 1.88284 8.39218L1.95016 8.48835C2.35876 9.07207 2.8176 9.61896 3.32142 10.1228L7.12792 13.9293C7.60956 14.4109 8.39047 14.4109 8.87211 13.9293L12.6786 10.1228C13.1824 9.61896 13.6413 9.07207 14.0499 8.48835L14.1172 8.39218C15.2426 6.78442 15.0098 4.59292 13.5717 3.25752C11.9713 1.77146 9.4704 1.87683 8.00002 3.48108Z" fill="var(------icon_secondary, #929296)"/>
</svg>
