<svg width="16" height="16" viewBox="0 0 16 16" fill="none" xmlns="http://www.w3.org/2000/svg">
<path d="M7.26015 2.27212C7.26015 1.86403 7.59098 1.5332 7.99907 1.5332C8.40716 1.5332 8.73799 1.86403 8.73799 2.27212V2.55151C8.73799 2.56684 8.73752 2.58206 8.7366 2.59715C10.908 2.9539 12.3244 4.8742 12.3244 7.10339L12.325 9.3126L13.6666 11.0593C13.6931 11.0938 13.7156 11.1313 13.7335 11.171C13.841 11.4087 13.8575 11.6552 13.8039 11.8804C13.7953 11.8714 13.7866 11.8625 13.7777 11.8537L11.1917 9.28614L11.1911 7.10339C11.1911 5.15918 9.86244 3.67118 7.99847 3.67118C7.28471 3.67118 6.64945 3.88937 6.13723 4.26781L5.32463 3.46103C5.86432 3.02354 6.51878 2.71878 7.26153 2.59696C7.26062 2.58193 7.26015 2.56677 7.26015 2.55151V2.27212Z" fill="var(------icon_secondary, #929296)"/>
<path d="M3.93373 3.13251C3.71243 2.91121 3.35364 2.91121 3.13234 3.13251C2.91105 3.3538 2.91105 3.7126 3.13234 3.93389L12.4657 13.2672C12.687 13.4885 13.0458 13.4885 13.2671 13.2672C13.4884 13.0459 13.4884 12.6871 13.2671 12.4658L3.93373 3.13251Z" fill="var(------icon_secondary, #929296)"/>
<path d="M5.9212 13.4184C5.87979 13.3254 5.95208 13.2266 6.05382 13.2266H9.94768C10.0494 13.2266 10.1217 13.3254 10.0803 13.4184C9.75599 14.1461 8.94719 14.6617 8.00075 14.6617C7.05431 14.6617 6.24551 14.1461 5.9212 13.4184Z" fill="var(------icon_secondary, #929296)"/>
<path d="M3.67255 7.10339C3.67255 6.63726 3.73448 6.18464 3.8523 5.757L4.82335 6.72111C4.81178 6.84631 4.80588 6.97384 4.80588 7.10339V9.50687C4.80588 9.63173 4.76464 9.7531 4.68857 9.85212L3.34214 11.6045H9.74188L10.8834 12.7378H3.28072C2.47797 12.7378 1.93009 11.9115 2.26488 11.171C2.28284 11.1313 2.30532 11.0938 2.33187 11.0592L3.67255 9.31431V7.10339Z" fill="var(------icon_secondary, #929296)"/>
</svg>
